# xmcd
#
# Track frame offsets:
#	150
#	14480
#	26138
#	41528
#	57353
#	74363
#	90919
#	105823
#	118801
#	136019
#	149861
#	162457
#	174123
#	198016
#
# Disc length: 2694 seconds
#
# Revision: 1
# Processed by: cddbd v1.5.2PL0 Copyright (c) Steve Scherf et al.
# Submitted via: audiograbber 1.83.01
#
DISCID=b80a840e
DTITLE=Various Artist - CDX 035
DYEAR=1992
DGENRE=Country
TTITLE0=Holly Dunn - As Long As You Belong To Me
TTITLE1=Jack Robertson - Bootie Bumpin' Dancin' Fool
TTITLE2=Confederate Railroad - Jesus And Mama
TTITLE3=Waylon Jennings - Just Talkin'
TTITLE4=Diamond Rio - Nowhere Bound
TTITLE5=Michelle Wright - One Time Around
TTITLE6=Kevin Welch - Something 'Bout You
TTITLE7=Tracy Byrd - That's The Thing About A Memory
TTITLE8=Crystal Gayle - Three Good Reasons
TTITLE9=Doug Stone - Warning Labels
TTITLE10=Dan Seals - When Love Comes Around The Bend
TTITLE11=Debra Dudley - You Know Who
TTITLE12=Waylon Jennings - Interview
TTITLE13=Waylon Jennings - Station Liners
EXTD=
EXTT0=
EXTT1=
EXTT2=
EXTT3=
EXTT4=
EXTT5=
EXTT6=
EXTT7=
EXTT8=
EXTT9=
EXTT10=
EXTT11=
EXTT12=
EXTT13=
PLAYORDER=
